<svg width="12" height="14" viewBox="0 0 12 14" fill="none" xmlns="http://www.w3.org/2000/svg">
<path d="M10.6667 0.333328H2C1.196 0.333328 0 0.865995 0 2.33333V11.6667C0 13.134 1.196 13.6667 2 13.6667H12V12.3333H2.008C1.7 12.3253 1.33333 12.204 1.33333 11.6667C1.33333 11.5993 1.33933 11.5393 1.34933 11.4847C1.424 11.1007 1.73867 11.0067 2.008 11H12V1.66666C12 1.31304 11.8595 0.973901 11.6095 0.723852C11.3594 0.473804 11.0203 0.333328 10.6667 0.333328ZM10.6667 6.33333L9.33333 5.66666L8 6.33333V1.66666H10.6667V6.33333Z" fill="white"/>
</svg>
