<svg width="16" height="16" viewBox="0 0 16 16" fill="none" xmlns="http://www.w3.org/2000/svg">
<path d="M2 8.66667C2 10.258 2.63214 11.7841 3.75736 12.9093C4.88258 14.0345 6.4087 14.6667 8 14.6667C8 13.0754 7.36786 11.5492 6.24264 10.424C5.11742 9.29881 3.5913 8.66667 2 8.66667ZM8 14.6667C9.5913 14.6667 11.1174 14.0345 12.2426 12.9093C13.3679 11.7841 14 10.258 14 8.66667C12.4087 8.66667 10.8826 9.29881 9.75736 10.424C8.63214 11.5492 8 13.0754 8 14.6667ZM12 2V5.33334C12 6.3942 11.5786 7.41162 10.8284 8.16176C10.0783 8.91191 9.06087 9.33334 8 9.33334C6.93913 9.33334 5.92172 8.91191 5.17157 8.16176C4.42143 7.41162 4 6.3942 4 5.33334V2C4.49333 2 4.98 2.08 5.44 2.26C5.80667 2.41334 6.13333 2.64 6.40667 2.92667L8 1.33334L9.59333 2.92667C9.86667 2.64 10.1933 2.41334 10.56 2.26C11.0195 2.08403 11.508 1.99584 12 2Z" fill="white"/>
</svg>
