<svg width="14" height="14" viewBox="0 0 14 14" fill="none" xmlns="http://www.w3.org/2000/svg">
<path d="M7.40925 0.473333C7.29222 0.382297 7.14819 0.33287 6.99992 0.33287C6.85165 0.33287 6.70761 0.382297 6.59059 0.473333L1.10525 4.74C0.864692 4.92713 0.670081 5.16677 0.536284 5.4406C0.402486 5.71443 0.333041 6.01523 0.333252 6.32V12.3333C0.333252 12.687 0.473728 13.0261 0.723777 13.2761C0.973825 13.5262 1.31296 13.6667 1.66659 13.6667H4.33325C4.68687 13.6667 5.02601 13.5262 5.27606 13.2761C5.52611 13.0261 5.66659 12.687 5.66659 12.3333V8.33333H8.33325V12.3333C8.33325 12.687 8.47373 13.0261 8.72378 13.2761C8.97383 13.5262 9.31296 13.6667 9.66659 13.6667H12.3333C12.6869 13.6667 13.026 13.5262 13.2761 13.2761C13.5261 13.0261 13.6666 12.687 13.6666 12.3333V6.32C13.6666 6.01512 13.597 5.71425 13.463 5.44041C13.3289 5.16657 13.1341 4.927 12.8933 4.74L7.40925 0.473333Z" fill="white"/>
</svg>
