<svg width="18" height="19" viewBox="0 0 18 19" fill="none" xmlns="http://www.w3.org/2000/svg">
<path d="M9.88889 13.5V14.5C9.88889 15.2956 9.60794 16.0587 9.10784 16.6213C8.60774 17.1839 7.92947 17.5 7.22222 17.5H3.66667C2.95942 17.5 2.28115 17.1839 1.78105 16.6213C1.28095 16.0587 1 15.2956 1 14.5V4.5C1 3.70435 1.28095 2.94129 1.78105 2.37868C2.28115 1.81607 2.95942 1.5 3.66667 1.5H7.22222C7.92947 1.5 8.60774 1.81607 9.10784 2.37868C9.60794 2.94129 9.88889 3.70435 9.88889 4.5V5.5M13.4444 13.5L17 9.5L13.4444 13.5ZM17 9.5L13.4444 5.5L17 9.5ZM17 9.5H4.55556H17Z" stroke="white" stroke-width="2" stroke-linecap="round" stroke-linejoin="round"/>
</svg>
